<svg width="60" height="61" viewBox="0 0 60 61" fill="none" xmlns="http://www.w3.org/2000/svg">
<rect y="0.5" width="59.2593" height="60" rx="4.87635" fill="#242424"/>
<path fill-rule="evenodd" clip-rule="evenodd" d="M41.7037 33.565C42.8515 31.7643 43.4596 29.6726 43.4563 27.5372C43.4563 21.3322 38.4266 16.3025 32.2216 16.3025C30.0032 16.3025 27.9352 16.9455 26.1938 18.0543C25.0349 18.1193 23.8878 18.3218 22.7767 18.6575C23.9876 17.3665 25.4507 16.3379 27.0754 15.6355C28.7 14.9331 30.4516 14.5719 32.2216 14.5741C39.3807 14.5741 45.1847 20.3781 45.1847 27.5372C45.1868 29.3072 44.8255 31.0587 44.1231 32.6834C43.4207 34.308 42.3922 35.7711 41.1013 36.9821C41.4306 35.8906 41.6371 34.7464 41.7037 33.565Z" fill="white"/>
<path fill-rule="evenodd" clip-rule="evenodd" d="M43.3984 34.1077C42.7726 35.1698 41.9992 36.1375 41.1013 36.9821C41.4306 35.8906 41.6371 34.7464 41.7037 33.565C42.8515 31.7643 43.4596 29.6726 43.4563 27.5372C43.4563 21.3322 38.4266 16.3025 32.2216 16.3025C30.0032 16.3025 27.9352 16.9455 26.1938 18.0543C25.0349 18.1193 23.8878 18.3218 22.7767 18.6575C23.6213 17.7596 24.5891 16.9862 25.6511 16.3604C27.6418 15.1874 29.911 14.5705 32.2216 14.5741C39.3807 14.5741 45.1847 20.3781 45.1847 27.5372C45.1888 29.8479 44.5718 32.1172 43.3984 34.1077Z" fill="white"/>
<path fill-rule="evenodd" clip-rule="evenodd" d="M39.9997 32.7225C39.9997 39.8815 34.1957 45.6855 27.0367 45.6855C19.8776 45.6855 14.0736 39.8815 14.0736 32.7225C14.0736 25.5634 19.8776 19.7594 27.0367 19.7594C34.1957 19.7594 39.9997 25.5634 39.9997 32.7225ZM26.1725 28.4014C25.7141 28.4014 25.2744 28.5835 24.9503 28.9077C24.6262 29.2318 24.4441 29.6715 24.4441 30.1299C24.4441 30.5883 24.6262 31.0279 24.9503 31.352C25.2744 31.6762 25.7141 31.8583 26.1725 31.8583V28.4014ZM27.9009 26.673V25.8088H26.1725V26.673C25.2557 26.673 24.3764 27.0372 23.7281 27.6855C23.0799 28.3338 22.7157 29.213 22.7157 30.1299C22.7157 31.0467 23.0799 31.9259 23.7281 32.5742C24.3764 33.2225 25.2557 33.5867 26.1725 33.5867V37.0435C25.4206 37.0435 24.7802 36.5639 24.5417 35.8915C24.5063 35.7815 24.4492 35.6797 24.3738 35.5922C24.2984 35.5046 24.2062 35.4331 24.1027 35.3818C23.9991 35.3305 23.8863 35.3005 23.771 35.2935C23.6557 35.2866 23.5401 35.3028 23.4311 35.3413C23.3222 35.3798 23.2221 35.4398 23.1367 35.5176C23.0513 35.5955 22.9824 35.6897 22.9341 35.7947C22.8857 35.8996 22.8589 36.0132 22.8553 36.1287C22.8516 36.2442 22.8711 36.3593 22.9127 36.4671C23.1511 37.1411 23.5926 37.7247 24.1763 38.1375C24.7601 38.5502 25.4575 38.7719 26.1725 38.7719V39.6361H27.9009V38.7719C28.8177 38.7719 29.6969 38.4077 30.3452 37.7594C30.9935 37.1111 31.3577 36.2319 31.3577 35.3151C31.3577 34.3983 30.9935 33.519 30.3452 32.8707C29.6969 32.2225 28.8177 31.8583 27.9009 31.8583V28.4014C28.6527 28.4014 29.2931 28.8811 29.5316 29.5534C29.567 29.6634 29.6241 29.7652 29.6995 29.8528C29.7749 29.9403 29.8671 30.0119 29.9707 30.0632C30.0742 30.1145 30.187 30.1445 30.3024 30.1514C30.4177 30.1584 30.5333 30.1421 30.6422 30.1036C30.7512 30.0651 30.8513 30.0052 30.9367 29.9273C31.022 29.8494 31.0909 29.7552 31.1393 29.6503C31.1876 29.5453 31.2144 29.4317 31.2181 29.3162C31.2218 29.2007 31.2022 29.0857 31.1607 28.9779C30.9223 28.3038 30.4808 27.7202 29.897 27.3075C29.3132 26.8947 28.6159 26.673 27.9009 26.673ZM27.9009 33.5867V37.0435C28.3593 37.0435 28.7989 36.8614 29.1231 36.5373C29.4472 36.2131 29.6293 35.7735 29.6293 35.3151C29.6293 34.8567 29.4472 34.4171 29.1231 34.0929C28.7989 33.7688 28.3593 33.5867 27.9009 33.5867Z" fill="white"/>
</svg>
